<svg width="348" height="97" viewBox="0 0 348 97" fill="none" xmlns="http://www.w3.org/2000/svg">
<path d="M2.87271 74.5687L1.30579 70.9312L6.52886 22.4312L8.09579 26.0687L2.87271 74.5687ZM8.61809 74.5687L7.05117 70.9312L12.2742 22.4312L13.8412 26.0687L8.61809 74.5687ZM14.3635 74.5687L12.7966 70.9312L18.0196 22.4312L19.5866 26.0687L14.3635 74.5687Z" fill="#4ECB71"/>
<path d="M74.5034 74.5687L72.9365 70.9312L78.1596 22.4312L79.7265 26.0687L74.5034 74.5687ZM80.2488 74.5687L78.6819 70.9312L83.905 22.4312L85.4719 26.0687L80.2488 74.5687ZM85.9942 74.5687L84.4273 70.9312L89.6504 22.4312L91.2173 26.0687L85.9942 74.5687Z" fill="#4ECB71"/>
<path d="M38.6881 74.5687L37.1212 70.9312L42.3443 22.4312L43.9112 26.0687L38.6881 74.5687ZM44.4335 74.5687L42.8666 70.9312L48.0897 22.4312L49.6566 26.0687L44.4335 74.5687ZM50.1789 74.5687L48.612 70.9312L53.8351 22.4312L55.402 26.0687L50.1789 74.5687Z" fill="#4ECB71"/>
<path d="M107.334 74.5687L105.767 70.9312L110.99 22.4312L112.557 26.0687L107.334 74.5687ZM113.08 74.5687L111.513 70.9312L116.736 22.4312L118.303 26.0687L113.08 74.5687ZM118.825 74.5687L117.258 70.9312L122.481 22.4312L124.048 26.0687L118.825 74.5687Z" fill="#4ECB71"/>
<path d="M20.7804 74.5687L19.2135 70.9312L24.4366 22.4312L26.0035 26.0687L20.7804 74.5687ZM26.5258 74.5687L24.9589 70.9312L30.182 22.4312L31.7489 26.0687L26.5258 74.5687ZM32.2712 74.5687L30.7043 70.9312L35.9273 22.4312L37.4943 26.0687L32.2712 74.5687Z" fill="#4ECB71"/>
<path d="M90.9189 74.5687L89.3519 70.9312L94.575 22.4312L96.1419 26.0687L90.9189 74.5687ZM96.6642 74.5687L95.0973 70.9312L100.32 22.4312L101.887 26.0687L96.6642 74.5687ZM102.41 74.5687L100.843 70.9312L106.066 22.4312L107.633 26.0687L102.41 74.5687Z" fill="#4ECB71"/>
<path d="M56.5957 74.5687L55.0288 70.9312L60.2519 22.4312L61.8188 26.0687L56.5957 74.5687ZM62.3411 74.5687L60.7742 70.9312L65.9973 22.4312L67.5642 26.0687L62.3411 74.5687ZM68.0865 74.5687L66.5196 70.9312L71.7427 22.4312L73.3096 26.0687L68.0865 74.5687Z" fill="#4ECB71"/>
<path d="M125.242 74.5687L123.675 70.9312L128.898 22.4312L130.465 26.0687L125.242 74.5687ZM130.987 74.5687L129.42 70.9312L134.644 22.4312L136.21 26.0687L130.987 74.5687ZM136.733 74.5687L135.166 70.9312L140.389 22.4312L141.956 26.0687L136.733 74.5687Z" fill="#4ECB71"/>
<path d="M141.657 74.5687L140.09 70.9312L145.314 22.4312L146.88 26.0687L141.657 74.5687ZM147.403 74.5687L145.836 70.9312L151.059 22.4312L152.626 26.0687L147.403 74.5687ZM153.148 74.5687L151.581 70.9312L156.804 22.4312L158.371 26.0687L153.148 74.5687Z" fill="#4ECB71"/>
<path d="M213.288 74.5687L211.721 70.9312L216.944 22.4312L218.511 26.0687L213.288 74.5687ZM219.033 74.5687L217.467 70.9312L222.69 22.4312L224.257 26.0687L219.033 74.5687ZM224.779 74.5687L223.212 70.9312L228.435 22.4312L230.002 26.0687L224.779 74.5687Z" fill="#4ECB71"/>
<path d="M177.473 74.5687L175.906 70.9312L181.129 22.4312L182.696 26.0687L177.473 74.5687ZM183.218 74.5687L181.651 70.9312L186.874 22.4312L188.441 26.0687L183.218 74.5687ZM188.963 74.5687L187.397 70.9312L192.62 22.4312L194.187 26.0687L188.963 74.5687Z" fill="#4ECB71"/>
<path d="M246.119 74.5687L244.552 70.9312L249.775 22.4312L251.342 26.0687L246.119 74.5687ZM251.864 74.5687L250.297 70.9312L255.52 22.4312L257.087 26.0687L251.864 74.5687ZM257.61 74.5687L256.043 70.9312L261.266 22.4312L262.833 26.0687L257.61 74.5687Z" fill="#4ECB71"/>
<path d="M159.565 74.5687L157.998 70.9312L163.221 22.4312L164.788 26.0687L159.565 74.5687ZM165.31 74.5687L163.743 70.9312L168.967 22.4312L170.533 26.0687L165.31 74.5687ZM171.056 74.5687L169.489 70.9312L174.712 22.4312L176.279 26.0687L171.056 74.5687Z" fill="#4ECB71"/>
<path d="M229.704 74.5687L228.137 70.9312L233.36 22.4312L234.927 26.0687L229.704 74.5687ZM235.449 74.5687L233.882 70.9312L239.105 22.4312L240.672 26.0687L235.449 74.5687ZM241.194 74.5687L239.627 70.9312L244.85 22.4312L246.417 26.0687L241.194 74.5687Z" fill="#4ECB71"/>
<path d="M195.38 74.5687L193.813 70.9312L199.037 22.4312L200.603 26.0687L195.38 74.5687ZM201.126 74.5687L199.559 70.9312L204.782 22.4312L206.349 26.0687L201.126 74.5687ZM206.871 74.5687L205.304 70.9312L210.527 22.4312L212.094 26.0687L206.871 74.5687Z" fill="#4ECB71"/>
<path d="M264.027 74.5687L262.46 70.9312L267.683 22.4312L269.25 26.0687L264.027 74.5687ZM269.772 74.5687L268.205 70.9312L273.428 22.4312L274.995 26.0687L269.772 74.5687ZM275.517 74.5687L273.95 70.9312L279.173 22.4312L280.74 26.0687L275.517 74.5687Z" fill="#4ECB71"/>
<path d="M280.442 74.5687L278.875 70.9312L284.098 22.4312L285.665 26.0687L280.442 74.5687ZM286.187 74.5687L284.62 70.9312L289.843 22.4312L291.41 26.0687L286.187 74.5687ZM291.933 74.5687L290.366 70.9312L295.589 22.4312L297.156 26.0687L291.933 74.5687Z" fill="#4ECB71"/>
<path d="M316.257 74.5687L314.69 70.9312L319.914 22.4312L321.48 26.0687L316.257 74.5687ZM322.003 74.5687L320.436 70.9312L325.659 22.4312L327.226 26.0687L322.003 74.5687ZM327.748 74.5687L326.181 70.9312L331.404 22.4312L332.971 26.0687L327.748 74.5687Z" fill="#4ECB71"/>
<path d="M298.35 74.5687L296.783 70.9312L302.006 22.4312L303.573 26.0687L298.35 74.5687ZM304.095 74.5687L302.528 70.9312L307.751 22.4312L309.318 26.0687L304.095 74.5687ZM309.84 74.5687L308.273 70.9312L313.497 22.4312L315.063 26.0687L309.84 74.5687Z" fill="#4ECB71"/>
<path d="M334.165 74.5687L332.598 70.9312L337.821 22.4312L339.388 26.0687L334.165 74.5687ZM339.91 74.5687L338.344 70.9312L343.567 22.4312L345.134 26.0687L339.91 74.5687ZM345.656 74.5687L344.089 70.9312L349.312 22.4312L350.879 26.0687L345.656 74.5687Z" fill="#4ECB71"/>
</svg>
